<?xml version="1.0" encoding="utf-8"?>
<!-- Generator: Adobe Illustrator 19.2.1, SVG Export Plug-In . SVG Version: 6.00 Build 0)  -->
<svg version="1.1" id="圖層_1" xmlns="http://www.w3.org/2000/svg" xmlns:xlink="http://www.w3.org/1999/xlink" x="0px" y="0px"
	 viewBox="0 0 85 60" style="enable-background:new 0 0 85 60;" xml:space="preserve">
<style type="text/css">
	.st0{opacity:0.5;}
	.st1{fill:#FFFFFF;}
</style>
<title>icon-dashboard-betting</title>
<g class="st0">
	<circle class="st1" cx="23.4" cy="12.3" r="12.3"/>
	<path class="st1" d="M27.8,43.8c0-11.2,7.2-16.7,7.2-16.7H11.6L0,53.1L4.3,60l33.7-0.1C36.5,59.1,27.8,53.8,27.8,43.8z"/>
	<path class="st1" d="M41.6,26.8l2.7,4.6c2.8-1.1,5.9-1.1,8.7,0l2.7-4.6C51.2,24.8,46.1,24.8,41.6,26.8z"/>
	<path class="st1" d="M60,40.6h5.3c-0.5-4.9-3-9.3-7-12.2L55.8,33C58.1,34.9,59.6,37.6,60,40.6z"/>
	<path class="st1" d="M31.8,40.6h5.3c0.4-3,2-5.7,4.3-7.5l-2.7-4.6C34.8,31.3,32.3,35.7,31.8,40.6z"/>
	<path class="st1" d="M55.8,51.3l2.7,4.6c4-2.8,6.5-7.3,7-12.2h-5.3C59.7,46.7,58.2,49.4,55.8,51.3z"/>
	<path class="st1" d="M37.2,43.8h-5.3c0.5,4.9,3,9.3,7,12.2l2.7-4.6C39.1,49.4,37.6,46.7,37.2,43.8z"/>
	<path class="st1" d="M48.6,53.7c-1.5,0-3-0.3-4.3-0.8l-2.7,4.6c4.4,2,9.6,2,14,0L53,52.9C51.6,53.5,50.1,53.7,48.6,53.7z"/>
	<path class="st1" d="M49.5,48c0,0.2-0.1,0.4-0.2,0.5c-0.1,0.1-0.3,0.2-0.5,0.2c-0.2,0-0.4-0.1-0.6-0.2c-0.1-0.1-0.2-0.3-0.3-0.5
		v-1.5h-4.2c0,0.9,0.1,1.8,0.5,2.6c0.3,0.7,0.9,1.3,1.6,1.6c0.9,0.4,1.9,0.6,2.9,0.6c0.9,0,1.7-0.1,2.5-0.5c0.7-0.3,1.3-0.7,1.7-1.3
		c0.4-0.6,0.7-1.2,0.7-1.9c0.1-0.7,0.1-2,0.1-4v-2.3c-0.1-1.8-0.1-3.1-0.1-3.7c-0.1-0.7-0.3-1.3-0.6-1.8c-0.4-0.6-1-1.1-1.7-1.4
		c-0.9-0.3-1.8-0.5-2.8-0.5c-0.8,0-1.6,0.1-2.4,0.4c-0.6,0.2-1.2,0.6-1.6,1.1c-0.4,0.5-0.6,1-0.7,1.6c-0.1,0.9-0.2,1.8-0.1,2.7V41
		c0,0.8,0.1,1.6,0.2,2.3c0.2,0.6,0.5,1.1,1.1,1.5c0.6,0.4,1.3,0.6,2,0.6c0.5,0,1.1-0.1,1.5-0.3c0.4-0.2,0.7-0.6,0.9-1v2.7
		C49.5,47.2,49.5,47.6,49.5,48z M49.3,42.6c-0.1,0.2-0.4,0.3-0.6,0.3c-0.2,0-0.4-0.1-0.6-0.2c-0.2-0.4-0.3-0.8-0.3-1.3v-3.2
		c-0.1-0.5,0-1,0.3-1.4c0.1-0.2,0.3-0.3,0.6-0.3c0.3,0,0.5,0.1,0.6,0.3c0.2,0.5,0.2,1,0.2,1.5v3C49.6,41.8,49.5,42.2,49.3,42.6
		C49.3,42.6,49.3,42.6,49.3,42.6z"/>
</g>
</svg>
