<?xml version="1.0" encoding="utf-8"?>
<!-- Generator: Adobe Illustrator 19.2.1, SVG Export Plug-In . SVG Version: 6.00 Build 0)  -->
<svg version="1.1" id="圖層_1" xmlns="http://www.w3.org/2000/svg" xmlns:xlink="http://www.w3.org/1999/xlink" x="0px" y="0px"
	 viewBox="0 0 85 60" style="enable-background:new 0 0 85 60;" xml:space="preserve">
<style type="text/css">
	.st0{opacity:0.5;}
	.st1{fill:#FFFFFF;}
	.st2{opacity:0.1;}
	.st3{opacity:0.25;}
</style>
<title>icon-dashboard-online</title>
<g>
	<g class="st0">
		<circle class="st1" cx="23.4" cy="12.3" r="12.3"/>
		<polygon class="st1" points="34.9,27.1 11.6,27.1 0,53.1 4.3,60 42.6,59.9 46.7,52.8 		"/>
	</g>
	<g class="st2">
		<path class="st1" d="M56.2,12.3c-0.2,3.9-1.5,7.6-3.9,10.7c1.8,1,3.9,1.6,6,1.6c6.8,0,12.3-5.5,12.3-12.2c0,0,0,0,0,0
			C70.5,5.5,65.1,0,58.3,0c-2.6,0-5.1,0.8-7.2,2.4C53.2,4.3,56.2,7.8,56.2,12.3z"/>
		<polygon class="st1" points="69.8,26.9 55.2,27 68,53.1 63.7,59.9 66.4,59.9 77.5,59.9 81.7,53.1 		"/>
	</g>
	<g class="st3">
		<path class="st1" d="M39,12.3c-0.2,3.9-1.5,7.6-3.9,10.7c1.8,1,3.9,1.6,6,1.6c6.8,0,12.3-5.5,12.3-12.2c0,0,0,0,0,0
			C53.3,5.5,47.9,0,41.1,0c-2.6,0-5.1,0.8-7.2,2.4C36,4.3,39,7.8,39,12.3z"/>
		<polygon class="st1" points="52.7,26.9 38,27 50.8,53.1 46.5,59.9 49.3,59.9 60.3,59.9 64.5,53.1 		"/>
	</g>
</g>
</svg>
