<?xml version="1.0" encoding="utf-8"?>
<!-- Generator: Adobe Illustrator 19.2.1, SVG Export Plug-In . SVG Version: 6.00 Build 0)  -->
<svg version="1.1" id="圖層_1" xmlns="http://www.w3.org/2000/svg" xmlns:xlink="http://www.w3.org/1999/xlink" x="0px" y="0px"
	 viewBox="0 0 85 60" style="enable-background:new 0 0 85 60;" xml:space="preserve">
<style type="text/css">
	.st0{opacity:0.5;}
	.st1{fill:#FFFFFF;}
</style>
<title>icon-dashboard-money</title>
<g class="st0">
	<path class="st1" d="M7.5,35.2c0.7,1.4,1.6,2.8,2.6,4.1c2,0.1,4.1,0.1,6.1,0c0.7-0.2,12.1-7,12.1-7h7.8l3.8,3.8v4.1l-2.1,4.3
		c0,0,10.4-5,13-7.6c6.9-11.7,2.9-26.7-8.8-33.6c0,0,0,0,0,0C30.3-3.5,15.2,0.4,8.4,12.1c0,0,0,0,0,0C4.6,18.6,4,26.5,6.7,33.5
		C7,34.1,7.3,34.7,7.5,35.2z M19.7,21.1h8.8l-6.3-7.3l1.7-1.5l5.6,6.5l5.2-6.5l1.8,1.5L30.8,21v0.1h8.8v2.2h-8.8v6.8h-2.3v-6.8h-8.8
		L19.7,21.1L19.7,21.1z"/>
	<polygon class="st1" points="54.8,38.6 39,47.8 28.3,47.8 32,45.9 36.4,41 36.4,36.8 35.3,35.6 35.1,35.6 29.3,35.6 16.4,42.7 
		8.2,42.7 0,46.7 0,54.6 19.3,60 33.8,60 43.9,55.6 57.9,41.1 	"/>
</g>
</svg>
