<?xml version="1.0" encoding="utf-8"?>
<!-- Generator: Adobe Illustrator 19.2.1, SVG Export Plug-In . SVG Version: 6.00 Build 0)  -->
<svg version="1.1" id="圖層_1" xmlns="http://www.w3.org/2000/svg" xmlns:xlink="http://www.w3.org/1999/xlink" x="0px" y="0px"
	 viewBox="0 0 85 60" style="enable-background:new 0 0 85 60;" xml:space="preserve">
<style type="text/css">
	.st0{opacity:0.5;}
	.st1{fill:#FFFFFF;}
</style>
<title>icon-dashboard-regist</title>
<g class="st0">
	<path class="st1" d="M48.3,24.8c-9.3,0-16.9,7.6-16.9,16.9c0,0,0,0,0,0l0,0c0,9.3,7.6,16.9,16.9,16.9l0,0l0,0
		c9.3,0,16.9-7.6,16.9-16.9S57.7,24.8,48.3,24.8z M59,43.9h-8.4v8.5h-4.5v-8.5h-8.5v-4.5h8.5V31h4.5v8.5H59V43.9z"/>
	<circle class="st1" cx="23.4" cy="12.3" r="12.3"/>
	<path class="st1" d="M27.8,43.8c0-11.2,7.2-16.7,7.2-16.7H11.6L0,53.1L4.3,60l33.7-0.1C36.5,59.1,27.8,53.8,27.8,43.8z"/>
</g>
</svg>
