<?xml version="1.0" encoding="utf-8"?>
<!-- Generator: Adobe Illustrator 21.1.0, SVG Export Plug-In . SVG Version: 6.00 Build 0)  -->
<svg version="1.1" id="圖層_1" xmlns="http://www.w3.org/2000/svg" xmlns:xlink="http://www.w3.org/1999/xlink" x="0px" y="0px"
	 viewBox="0 0 200 50" style="enable-background:new 0 0 200 50;" xml:space="preserve">
<style type="text/css">
	.st0{fill:#BE0008;}
	.st1{fill:#FFFFFF;}
</style>
<g>
	<path class="st0" d="M25,50C11.2,50,0,38.8,0,25C0,11.2,11.2,0,25,0c13.8,0,25,11.2,25,25c0,6.1-2.2,11.9-6.2,16.4l-0.2,0.3
		L43.3,42C38.6,47.1,31.9,50,25,50z M8.5,41.4c4.5,4.5,10.4,6.9,16.6,6.9c6.3,0,12.2-2.5,16.7-7.1V9.3l-16.7-5L8.5,9V41.4z
		 M6.8,10.6c-3.2,4-5,9.1-5,14.4c0,5.3,1.8,10.4,5,14.4V10.6z M43.4,39.2c3.1-4,4.8-9,4.8-14.2c0-5.2-1.7-10.2-4.8-14.2V39.2z
		 M40.3,7.4c-3.9-3.1-9.5-5.4-14.5-5.6V3L40.3,7.4z M24.1,1.8C19.3,2,14,4.1,10.2,7l13.9-4V1.8z M11.4,41.9V30.6h27.1v11.3H11.4z
		 M36.8,40.2v-2.9h-11v2.9H36.8z M24.1,40.2v-2.9h-11v2.9H24.1z M36.8,35.6v-3.2h-11v3.2H36.8z M24.1,35.6v-3.2h-11v3.2H24.1z
		 M11.4,26.6v-8.3h27.1v8.3H11.4z M36.8,24.9v-5H13.1v5H36.8z M12,14.2v-1.6h26v1.6H12z"/>
	<g>
		<g>
			<path class="st1" d="M70.4,35.9h-2l-4.1-11.7l0.3-0.4H68v-8.1h-5v20.2H61V14.1h7.3c0.5,0,0.8,0.1,1.1,0.4
				c0.3,0.3,0.4,0.7,0.4,1.1v8.3c0,1.1-0.7,1.6-2.1,1.6c-0.1,0-0.3,0-0.6,0c-0.3,0-0.5,0-0.6,0C67.9,28.9,69.1,32.4,70.4,35.9z"/>
			<path class="st1" d="M85.4,34.4c0,0.5-0.1,0.8-0.4,1.1c-0.3,0.3-0.7,0.4-1.1,0.4h-6.1c-0.5,0-0.8-0.1-1.1-0.4
				c-0.3-0.3-0.4-0.7-0.4-1.1V15.6c0-0.5,0.1-0.8,0.4-1.1c0.3-0.3,0.7-0.4,1.1-0.4h6.1c0.5,0,0.8,0.1,1.1,0.4
				c0.3,0.3,0.4,0.7,0.4,1.1V34.4z M83.4,34.2V15.8h-5.4v18.4H83.4z"/>
			<path class="st1" d="M98.7,35.9h-7V14.1h1.9v20.2h5V35.9z"/>
			<path class="st1" d="M111.2,35.9h-7V14.1h1.9v20.2h5V35.9z"/>
			<path class="st1" d="M118.8,35.9h-1.9V14.1h1.9V35.9z"/>
			<path class="st1" d="M134.3,35.9H133l-5.8-16.1v16.1h-1.8V14.1h1.5l5.7,15.8V14.1h1.8V35.9z"/>
			<path class="st1" d="M149.5,34.4c0,0.5-0.1,0.8-0.4,1.1c-0.3,0.3-0.7,0.4-1.1,0.4h-5.7c-0.5,0-0.8-0.1-1.1-0.4
				c-0.3-0.3-0.4-0.7-0.4-1.1V15.6c0-0.5,0.1-0.8,0.4-1.1c0.3-0.3,0.7-0.4,1.1-0.4h5.7c0.5,0,0.8,0.1,1.1,0.4
				c0.3,0.3,0.4,0.7,0.4,1.1v5.1h-2v-4.9h-4.9v18.4h4.9v-7.6h-2.3V25h4.3V34.4z"/>
			<path class="st1" d="M173.1,34.4c0,0.5-0.1,0.8-0.4,1.1c-0.3,0.3-0.7,0.4-1.1,0.4h-7.2V14.1h7.2c0.5,0,0.8,0.1,1.1,0.4
				c0.3,0.3,0.4,0.7,0.4,1.1v6.5c0,0.6-0.3,1.1-0.8,1.5c-0.5,0.3-1,0.6-1.5,0.9l1.6,1.1c0.5,0.3,0.7,0.8,0.7,1.4V34.4z M171.1,22.4
				v-6.6h-4.8v7.9h2.9L171.1,22.4z M171.2,34.2v-7.6l-2-1.3h-2.9v8.9H171.2z"/>
			<path class="st1" d="M186.6,35.9h-7.2V14.1h7.1v1.7h-5.2v8.2h4.7v1.8h-4.7v8.5h5.2V35.9z"/>
			<path class="st1" d="M200,15.8h-3.4v20.2h-1.9V15.8h-3.4v-1.7h8.7V15.8z"/>
		</g>
	</g>
</g>
</svg>
