<?xml version="1.0" encoding="utf-8"?>
<!-- Generator: Adobe Illustrator 19.2.1, SVG Export Plug-In . SVG Version: 6.00 Build 0)  -->
<svg version="1.1" id="图层_1" xmlns="http://www.w3.org/2000/svg" xmlns:xlink="http://www.w3.org/1999/xlink" x="0px" y="0px"
	 viewBox="0 0 79.4 62" style="enable-background:new 0 0 79.4 62;" xml:space="preserve">
<style type="text/css">
	.st0{fill:#DE0000;}
</style>
<title>logo-s</title>
<path class="st0" d="M39.7,61c-16.5,0-30-13.5-30-30c0-16.5,13.5-30,30-30c16.5,0,30,13.5,30,30c0,7.3-2.6,14.3-7.4,19.7L62.1,51
	l-0.4,0.4C56,57.5,48,61,39.7,61z M19.9,50.6c5.4,5.3,12.5,8.3,19.9,8.3c7.6,0,14.7-3,20.1-8.5V12.2l-20-6.1l-19.9,5.6V50.6z
	 M17.9,13.7c-3.9,4.8-6,10.9-6,17.3c0,6.4,2.1,12.5,6,17.3V13.7z M61.8,48c3.7-4.8,5.8-10.8,5.8-17c0-6.2-2.1-12.2-5.8-17V48z
	 M58.1,9.9c-4.7-3.8-11.4-6.5-17.4-6.8v1.5L58.1,9.9z M38.6,3.1C32.9,3.3,26.5,6,22,9.4l16.6-4.8V3.1z M23.4,51.3V37.8H56v13.6H23.4
	z M53.9,49.2v-3.4H40.7v3.4H53.9z M38.6,49.2v-3.4H25.4v3.4H38.6z M53.9,43.7v-3.8H40.7v3.8H53.9z M38.6,43.7v-3.8H25.4v3.8H38.6z
	 M23.4,32.9v-10H56v10H23.4z M53.9,30.9V25H25.4v5.9H53.9z M24.1,18v-2h31.2v2H24.1z"/>
</svg>
