<?xml version="1.0" encoding="utf-8"?>
<!-- Generator: Adobe Illustrator 19.2.1, SVG Export Plug-In . SVG Version: 6.00 Build 0)  -->
<svg version="1.1" id="圖層_1" xmlns="http://www.w3.org/2000/svg" xmlns:xlink="http://www.w3.org/1999/xlink" x="0px" y="0px"
	 viewBox="0 0 120 120" style="enable-background:new 0 0 120 120;" xml:space="preserve">
<style type="text/css">
	.st0{fill:#FFFFFF;}
</style>
<g>
	<g>
		<g>
			<g>
				<path class="st0" d="M24.7,81.3l0.5-0.3c0.5,0.5,0.9,1,1.1,1.4h5.5v2.5h-0.6V83H20.6v1.9H20v-2.5h5.6
					C25.4,82.1,25.1,81.7,24.7,81.3z M21.7,93.4v0.9h-0.6V89h9.7v5.3h-0.6v-0.9H21.7z M21.5,84h8.8v0.6h-8.8V84z M21.7,89.5v1.3h3.9
					v-1.3H21.7z M25.6,92.9v-1.5h-3.9v1.5H25.6z M22.3,88v-2.5h7.3V88H22.3z M29,86h-6.1v1.4H29V86z M30.2,90.8v-1.3h-4v1.3H30.2z
					 M26.2,92.9h4v-1.5h-4V92.9z"/>
				<path class="st0" d="M88.7,81.1h0.6v3.8H91v0.6h-1.7v8.7h-0.6v-8.7h-1.9v-0.6h1.9V81.1z M100,90.2v0.6h-2.1V93
					c0,0.8-0.5,1.2-1.4,1.2c-0.4,0-0.9,0-1.4-0.1L95,93.4c0.5,0.1,1,0.2,1.5,0.2c0.5,0,0.8-0.2,0.8-0.6v-2.3h-6.9v-0.6h6.9v-1h0.6v1
					H100z M95.4,89.3h-0.6v-1.2h-2.7v1.3h-0.6v-5.3h3.3v-0.9h-4.1v-0.5h4.1V81h0.6v1.7h4.4v0.5h-4.4v0.9h3.5v5.1h-0.6v-1.2h-2.9
					V89.3z M94.8,84.7h-2.7v1.1h2.7V84.7z M94.8,86.4h-2.7v1.2h2.7V86.4z M93,91c0.7,0.5,1.3,1,1.9,1.7l-0.4,0.4
					c-0.7-0.8-1.3-1.4-1.8-1.7L93,91z M95.4,85.8h2.9v-1.1h-2.9V85.8z M95.4,87.6h2.9v-1.2h-2.9V87.6z M96.9,81.1
					c0.6,0.2,1.3,0.5,2.1,0.9l-0.3,0.5c-0.6-0.3-1.3-0.6-2.1-1L96.9,81.1z"/>
			</g>
			<g>
				<g>
					<path class="st0" d="M40.9,92h-0.6l-1.3-3.7l0.1-0.1h1.1v-2.6h-1.6V92h-0.6v-7h2.3c0.1,0,0.3,0,0.4,0.1
						c0.1,0.1,0.1,0.2,0.1,0.4v2.6c0,0.3-0.2,0.5-0.7,0.5c0,0-0.1,0-0.2,0c-0.1,0-0.1,0-0.2,0C40.1,89.8,40.5,90.9,40.9,92z"/>
					<path class="st0" d="M45.6,91.5c0,0.1,0,0.3-0.1,0.4c-0.1,0.1-0.2,0.1-0.4,0.1h-1.9c-0.1,0-0.3,0-0.4-0.1
						c-0.1-0.1-0.1-0.2-0.1-0.4v-6c0-0.1,0-0.3,0.1-0.4c0.1-0.1,0.2-0.1,0.4-0.1h1.9c0.1,0,0.3,0,0.4,0.1c0.1,0.1,0.1,0.2,0.1,0.4
						V91.5z M45,91.4v-5.9h-1.7v5.9H45z"/>
					<path class="st0" d="M49.9,92h-2.2v-7h0.6v6.4h1.6V92z"/>
					<path class="st0" d="M53.9,92h-2.2v-7h0.6v6.4h1.6V92z"/>
					<path class="st0" d="M56.3,92h-0.6v-7h0.6V92z"/>
					<path class="st0" d="M61.2,92h-0.4l-1.9-5.1V92h-0.6v-7h0.5l1.8,5v-5h0.6V92z"/>
					<path class="st0" d="M66.1,91.5c0,0.1,0,0.3-0.1,0.4c-0.1,0.1-0.2,0.1-0.4,0.1h-1.8c-0.1,0-0.3,0-0.4-0.1
						c-0.1-0.1-0.1-0.2-0.1-0.4v-6c0-0.1,0-0.3,0.1-0.4c0.1-0.1,0.2-0.1,0.4-0.1h1.8c0.1,0,0.3,0,0.4,0.1c0.1,0.1,0.1,0.2,0.1,0.4
						v1.6h-0.6v-1.6h-1.6v5.9h1.6V89h-0.7v-0.5h1.4V91.5z"/>
					<path class="st0" d="M73.5,91.5c0,0.1,0,0.3-0.1,0.4c-0.1,0.1-0.2,0.1-0.4,0.1h-2.3v-7H73c0.1,0,0.3,0,0.4,0.1
						c0.1,0.1,0.1,0.2,0.1,0.4v2.1c0,0.2-0.1,0.3-0.2,0.5c-0.2,0.1-0.3,0.2-0.5,0.3l0.5,0.3c0.2,0.1,0.2,0.2,0.2,0.4V91.5z
						 M72.9,87.7v-2.1h-1.5v2.5h0.9L72.9,87.7z M72.9,91.4V89l-0.6-0.4h-0.9v2.8H72.9z"/>
					<path class="st0" d="M77.8,92h-2.3v-7h2.3v0.5h-1.6v2.6h1.5v0.6h-1.5v2.7h1.7V92z"/>
					<path class="st0" d="M82.1,85.6H81V92h-0.6v-6.4h-1.1V85h2.8V85.6z"/>
				</g>
			</g>
		</g>
	</g>
	<path class="st0" d="M59.7,78.3c-14.5,0-26.3-11.8-26.3-26.3c0-14.5,11.8-26.3,26.3-26.3C74.2,25.7,86,37.5,86,52
		c0,6.4-2.3,12.5-6.5,17.2l-0.2,0.3L79,69.9C74,75.2,67,78.3,59.7,78.3z M42.3,69.2c4.7,4.7,10.9,7.3,17.4,7.3
		c6.6,0,12.9-2.6,17.6-7.5V35.5l-17.5-5.3l-17.5,4.9V69.2z M40.6,36.8c-3.4,4.2-5.3,9.6-5.3,15.2c0,5.6,1.9,10.9,5.3,15.2V36.8z
		 M79.1,66.9c3.3-4.2,5.1-9.5,5.1-14.9c0-5.5-1.8-10.7-5.1-14.9V66.9z M75.8,33.5c-4.1-3.3-10-5.7-15.2-5.9v1.3L75.8,33.5z
		 M58.7,27.5c-5,0.2-10.6,2.5-14.6,5.5l14.6-4.2V27.5z M45.5,69.8V57.9H74v11.9H45.5z M72.2,68v-3H60.6v3H72.2z M58.7,68v-3H47.2v3
		H58.7z M72.2,63.1v-3.4H60.6v3.4H72.2z M58.7,63.1v-3.4H47.2v3.4H58.7z M45.5,53.6v-8.8H74v8.8H45.5z M72.2,51.9v-5.2h-25v5.2H72.2
		z M46,40.6v-1.7h27.4v1.7H46z"/>
</g>
</svg>
